<svg role="img" viewBox="0 0 24 24" xmlns="http://www.w3.org/2000/svg">
  <title>GitHub icon</title>
  <path d="M12 .297c-6.63 0-12 5.373-12 12
           0 5.303 3.438 9.8 8.205 11.387
           .6 .113 .82-.258 .82-.577
           0-.285-.01-1.04-.015-2.04
           -3.338 .724-4.042-1.61-4.042-1.61
           C4.422 16.07 3.633 15.7 3.633 15.7
           c-1.087-.744 .084-.729 .084-.729
           1.205 .084 1.84 1.236 1.84 1.236
           1.07 1.835 2.809 1.305 3.495 .998
           .108-.775 .418-1.305 .762-1.605
           -2.665-.3-5.467-1.335-5.467-5.93
           0-1.31 .468-2.38 1.236-3.22
           -.123-.303-.536-1.523 .117-3.176
           0 0 1.008-.322 3.302 1.23
           .957-.266 1.983-.399 3.003-.404
           1.02 .005 2.047 .138 3.006 .404
           2.292-1.552 3.298-1.23 3.298-1.23
           .654 1.653 .242 2.873 .119 3.176
           .77 .84 1.235 1.91 1.235 3.22
           0 4.61-2.807 5.625-5.479 5.921
           .43 .37 .823 1.102 .823 2.222
           0 1.606-.014 2.896-.014 3.286
           0 .321 .216 .694 .825 .576
           C20.565 22.092 24 17.592 24 12.297
           c0-6.627 -5.373-12 -12-12z"/>
</svg>