<svg role="img" viewBox="0 0 24 24" xmlns="http://www.w3.org/2000/svg">
  <title>Twitter icon</title>
  <path d="M23.954 4.569c-.885.389-1.83.654-2.825.775 1.014-.611 1.794-1.574 2.163-2.723-.949.555-2.005.959-3.127 1.184-.897-.959-2.173-1.559-3.591-1.559-2.717 0-4.92 2.203-4.92 4.917 0 .39.045.765.127 1.124-4.083-.205-7.697-2.159-10.126-5.134-.422.722-.666 1.561-.666 2.475 0 1.709.87 3.214 2.188 4.096-.807-.026-1.566-.248-2.229-.616v.061c0 2.385 1.693 4.374 3.946 4.827-.413.111-.849.171-1.296.171-.314 0-.615-.03-.916-.086.631 1.953 2.445 3.376 4.6 3.416-1.68 1.318-3.808 2.105-6.102 2.105-.39 0-.779-.023-1.17-.069 2.189 1.394 4.768 2.209 7.548 2.209 9.051 0 14.001-7.496 14.001-13.986 0-.21 0-.42-.015-.63.961-.689 1.8-1.56 2.46-2.548l-.047-.02z"/>
</svg>
